PathFileType	4	(X/Y/Z)	D:\TRACE\spotREDO_2-26-24\spot_justArm_Motion_2_1-platform.trc
DataRate	CameraRate	NumFrames	NumMarkers	Units	OrigDataRate	OrigDataStartFrame	OrigNumFrames
100.00	100.00	      72	5	mm	100.00	3501	      7000
Frame#	Time	Left_Front			Right_Front			Left_Aft			Right_Aft			Post			
		X1	Y1	Z1	X2	Y2	Z2	X3	Y3	Z3	X4	Y4	Z4	X5	Y5	Z5	

3501	35.000	-746.19617	-36.37120	-582.97620	668.65680	-23.56203	-498.84790	-817.50446	37.80339	633.92053	751.72009	43.83778	637.79358	-36.44798	567.79584	-1022.77936	
3502	35.010	-746.29791	-37.53432	-583.25391	668.37329	-24.44793	-499.01660	-817.59583	38.68299	633.55615	751.27435	44.76989	637.89502	-36.60575	565.75623	-1024.12732	
3503	35.020	-746.74518	-38.28902	-583.48260	668.10223	-25.21716	-499.14700	-818.22314	39.93932	633.01782	751.00049	45.99110	637.47955	-37.04139	564.29889	-1025.17773	
3504	35.030	-746.69885	-39.54116	-583.71948	667.84674	-26.29599	-499.38150	-818.19769	40.74813	632.78778	751.18091	46.68947	637.16504	-37.38334	562.57947	-1026.65039	
3505	35.040	-747.01990	-40.36939	-583.78467	667.80426	-27.07369	-499.55771	-818.28027	41.80818	632.57727	750.76263	47.85859	636.86212	-36.65371	560.86780	-1027.21033	
3506	35.050	-747.07654	-41.25586	-584.09839	667.74323	-27.50944	-499.82306	-818.35870	42.72136	632.21967	751.22217	49.28015	636.80054	-37.26807	559.16351	-1028.83398	
3507	35.060	-746.88922	-42.40495	-584.16785	667.70679	-28.70181	-499.71436	-818.40051	43.54232	632.10333	750.49884	49.69034	635.97308	-37.25696	557.43054	-1030.06348	
3508	35.070	-747.24976	-43.23941	-584.34131	667.77100	-29.62965	-500.08481	-818.51501	44.69371	631.54828	750.74719	50.64747	635.96234	-37.64441	556.10449	-1030.97693	
3509	35.080	-747.38098	-43.85693	-584.56036	667.76428	-30.19323	-500.20401	-818.44330	45.30458	631.39032	750.42944	51.73170	635.67682	-37.22507	554.54462	-1032.12830	
3510	35.090	-747.07251	-44.93088	-584.66730	667.68103	-30.69713	-500.51001	-818.68677	46.35428	631.17230	750.66107	52.57506	635.44110	-37.27577	552.80371	-1032.94836	
3511	35.100	-747.05743	-45.74858	-584.67310	667.84045	-31.80459	-500.60522	-818.42755	47.19929	630.68799	750.75555	53.36060	635.15833	-37.42080	551.39581	-1034.11243	
3512	35.110	-747.34137	-46.49409	-584.81171	667.78302	-32.56167	-500.74649	-818.56671	47.81858	630.40656	750.53363	53.89964	634.51923	-37.08649	550.03497	-1035.06519	
3513	35.120	-747.14532	-47.44236	-584.97113	667.88538	-33.18304	-501.00977	-818.40369	48.93502	630.08179	750.90601	54.87339	634.39227	-37.48650	548.48145	-1035.99207	
3514	35.130	-746.93329	-48.15789	-585.16754	668.16211	-33.88228	-501.03403	-818.10577	49.69051	630.00098	751.08789	55.68998	634.32367	-36.97389	547.18567	-1037.05835	
3515	35.140	-746.59045	-48.73344	-585.41125	668.43616	-34.35065	-501.24890	-817.72705	50.35528	629.80658	751.36182	56.64474	634.03491	-36.22856	545.79675	-1037.45032	
3516	35.150	-746.09961	-49.86417	-585.47559	668.82312	-35.11087	-501.44427	-817.64777	51.50554	629.40405	752.00061	57.27016	633.83514	-35.69366	544.45319	-1038.30139	
3517	35.160	-745.90967	-50.41498	-585.56909	669.11133	-35.70658	-501.74786	-817.25513	52.05637	629.22632	752.16785	58.15275	633.49634	-35.42881	543.08862	-1039.44519	
3518	35.170	-745.74377	-50.85619	-585.62683	669.62250	-36.53975	-501.75027	-816.78644	52.79441	628.94208	752.34857	58.75132	633.27795	-35.20348	541.89868	-1039.94434	
3519	35.180	-745.06445	-51.92153	-585.89508	669.90820	-36.95869	-501.78931	-816.45892	53.10345	628.70508	752.75378	59.56736	632.83868	-34.91267	540.45435	-1041.01953	
3520	35.190	-744.89679	-52.48198	-585.76788	670.38318	-37.57978	-501.93002	-816.12323	53.85663	628.38147	753.19055	60.04499	632.46136	-34.72356	539.59436	-1041.92639	
3521	35.200	-744.41211	-53.07750	-586.07410	670.66412	-38.07854	-501.96591	-815.70667	54.76313	628.11475	753.27960	60.72668	632.55530	-34.43583	538.20197	-1042.77637	
3522	35.210	-744.09924	-53.53495	-586.28699	670.97412	-38.43634	-502.16403	-815.51416	55.16079	627.85474	754.07605	61.31601	632.40143	-33.83411	537.36969	-1043.46973	
3523	35.220	-743.68768	-54.16982	-586.36536	671.53430	-39.13952	-502.24216	-814.84229	55.71034	627.81610	754.61823	62.15538	632.23724	-33.43301	536.24292	-1044.05750	
3524	35.230	-743.32416	-54.81210	-586.30975	671.93140	-39.51525	-502.33157	-814.41425	56.19284	627.68848	754.73724	62.47936	632.08789	-33.30646	535.30200	-1044.95142	
3525	35.240	-742.95978	-55.16686	-586.31659	672.42438	-39.81324	-502.66281	-813.90912	56.65068	627.42102	755.15393	62.86785	631.85999	-32.47107	534.43408	-1045.59241	
3526	35.250	-742.48669	-55.61784	-586.43665	672.77765	-40.29362	-502.61469	-813.50824	57.61644	627.41846	755.55005	63.42430	631.56879	-31.98608	533.73602	-1045.93079	
3527	35.260	-741.77716	-56.37876	-586.56665	673.50024	-40.84022	-502.49622	-812.91937	57.73496	627.16852	756.41296	63.89340	631.45831	-31.54060	533.01764	-1046.47217	
3528	35.270	-741.22015	-56.71230	-586.65967	673.88544	-41.21613	-502.66797	-812.41553	58.05581	627.00250	756.98785	64.18430	631.41705	-30.90423	532.16083	-1046.85876	
3529	35.280	-740.81873	-56.92708	-586.73730	674.44330	-41.41838	-502.73679	-811.91895	58.29854	626.89404	757.29840	64.75233	631.43878	-30.55008	531.61743	-1047.02246	
3530	35.290	-740.40417	-57.03105	-586.74957	674.95441	-41.72189	-502.70889	-811.43658	58.69358	626.71997	757.73596	65.08141	631.20288	-30.19487	531.20575	-1047.15173	
3531	35.300	-739.82837	-57.26800	-586.82062	675.39319	-41.96196	-502.82959	-810.84717	58.98545	626.60229	758.36780	65.51650	631.01575	-29.40943	530.47302	-1047.56287	
3532	35.310	-739.01526	-57.68135	-586.98419	675.92145	-41.96581	-502.97137	-810.26166	59.34760	626.59546	759.09692	65.62598	630.91125	-28.66534	529.98175	-1047.99438	
3533	35.320	-738.23053	-58.06076	-587.09839	676.78320	-42.28923	-503.04816	-809.75049	59.55154	626.61188	759.89691	65.86701	630.68274	-28.39715	529.79016	-1048.08582	
3534	35.330	-737.47284	-58.28163	-586.90277	677.50537	-42.56774	-502.97772	-809.20209	59.62119	626.53333	760.37921	65.91796	630.74200	-27.83928	529.49091	-1048.30603	
3535	35.340	-737.07477	-58.50803	-586.91528	678.05536	-42.67182	-503.00351	-808.33722	59.90913	626.47125	760.88635	66.16951	630.79846	-27.06654	529.14081	-1048.63611	
3536	35.350	-736.76282	-58.55143	-586.97357	678.49188	-42.54799	-503.16345	-807.69189	60.00426	626.39532	761.77631	66.25896	630.61597	-26.09919	528.63855	-1048.99695	
3537	35.360	-735.99695	-58.66930	-586.99823	679.30920	-42.72564	-503.32306	-807.08868	60.18818	626.28314	762.50806	66.74931	630.71362	-25.53847	528.40149	-1049.03186	
3538	35.370	-735.27545	-58.77363	-587.06830	680.18207	-42.87639	-503.17358	-806.46899	60.43341	626.21417	762.98755	66.80166	630.66974	-24.81244	528.32837	-1049.17517	
3539	35.380	-734.68219	-58.64902	-587.07422	680.84644	-43.12611	-503.03342	-805.54028	60.48728	626.22516	763.73895	66.84150	630.70825	-24.17743	528.14655	-1049.37463	
3540	35.390	-733.76678	-58.69378	-587.06812	681.42267	-43.20090	-503.02716	-804.98798	60.46812	626.12793	764.45795	66.69007	630.48480	-23.28564	528.01221	-1049.61475	
3541	35.400	-732.99622	-58.89261	-587.07733	682.00854	-43.08610	-503.12625	-804.26367	60.65306	626.19196	765.15717	66.56835	630.41101	-22.37913	528.01917	-1049.42322	
3542	35.410	-732.33240	-59.08947	-587.21222	682.89703	-43.13250	-503.13718	-803.66010	60.68320	626.11780	765.91516	66.81812	630.56146	-21.74453	528.01575	-1049.43079	
3543	35.420	-731.20203	-59.04734	-587.16205	683.77863	-42.99949	-503.10938	-802.78680	60.66399	626.14441	766.57983	66.72170	630.60181	-21.50622	528.14551	-1049.57056	
3544	35.430	-730.54480	-58.87729	-587.22205	684.73511	-42.79266	-503.18964	-802.11737	60.56931	626.07825	767.41254	66.76476	630.58972	-20.37050	528.37714	-1049.31616	
3545	35.440	-729.66772	-58.63119	-587.10388	685.09277	-42.70781	-503.17627	-801.38751	60.54979	626.28711	768.55310	66.76525	630.69836	-19.41766	528.49078	-1048.97473	
3546	35.450	-729.00824	-58.49972	-586.94202	686.20038	-42.79147	-502.93723	-800.44098	60.39856	626.32068	769.22699	66.50289	630.61719	-18.96752	528.66724	-1048.85706	
3547	35.460	-728.13867	-58.41356	-586.95667	686.99506	-42.70516	-503.10681	-799.78339	60.32251	626.09058	769.72778	66.29272	630.64056	-18.12216	529.16608	-1048.73218	
3548	35.470	-727.14734	-58.09071	-586.98834	687.70569	-42.37245	-503.04797	-798.91998	59.82001	626.31067	770.75708	66.03076	630.83997	-17.02726	529.65143	-1048.43030	
3549	35.480	-726.35052	-58.06297	-586.81641	688.68896	-41.97695	-502.86975	-797.86102	59.43121	626.48682	771.81165	65.93245	630.83929	-16.30041	530.05341	-1048.27002	
3550	35.490	-725.49274	-57.56765	-586.77545	689.62695	-41.78031	-502.88702	-796.86493	59.09557	626.57770	772.43207	65.58579	631.09021	-14.83306	530.83527	-1047.44287	
3551	35.500	-724.66730	-56.99484	-586.72205	690.29749	-41.52385	-502.75613	-795.98761	58.78913	626.67603	773.68402	64.86532	631.09204	-14.76577	531.32544	-1047.52014	
3552	35.510	-724.03601	-56.60719	-586.70355	691.28955	-41.14944	-502.74585	-795.22711	58.54903	626.75000	774.16748	64.72715	631.47919	-13.53691	531.98212	-1047.19971	
3553	35.520	-723.04016	-55.97804	-586.69910	692.31128	-40.79535	-502.56891	-794.38879	58.16337	626.77100	775.30280	64.06255	631.39716	-12.75798	532.70905	-1046.62964	
3554	35.530	-722.29773	-55.63656	-586.60315	693.15729	-40.42080	-502.39728	-793.46741	57.50735	627.08447	776.18097	63.95227	631.63965	-11.89095	533.48969	-1045.96155	
3555	35.540	-721.06830	-55.28665	-586.61682	694.07599	-39.89669	-502.42456	-792.63928	57.04995	627.28418	777.07190	63.59440	631.64020	-10.89092	534.37109	-1045.60583	
3556	35.550	-720.04480	-54.71714	-586.43341	695.13647	-39.39523	-502.31949	-791.64093	56.55786	627.50439	778.03998	62.98519	631.86816	-9.79999	535.29309	-1044.81274	
3557	35.560	-719.20868	-54.41506	-586.34784	696.07764	-39.06186	-502.33942	-790.50317	56.10458	627.90045	779.10077	62.29535	632.33093	-8.46582	536.13098	-1043.79541	
3558	35.570	-717.90295	-53.84449	-586.13483	696.77661	-38.35344	-502.18799	-789.49084	55.52267	627.88995	779.76154	61.94154	632.36017	-7.95649	537.37769	-1043.56543	
3559	35.580	-716.99677	-53.33780	-586.05151	697.90326	-37.95846	-502.07361	-788.45386	54.91920	628.29150	781.11047	61.28949	632.62585	-6.27359	538.31750	-1042.26392	
3560	35.590	-716.18683	-52.44968	-585.90277	699.11926	-37.36441	-501.88586	-787.57361	54.23738	628.46924	782.16742	60.80565	632.84186	-5.82212	539.58044	-1042.02039	
3561	35.600	-715.26984	-51.63383	-585.78583	699.84680	-36.47025	-501.84457	-786.50702	53.53618	628.55804	783.21155	60.02694	633.06671	-4.86278	540.56903	-1041.36646	
3562	35.610	-714.08411	-50.99096	-585.65234	701.00085	-36.06849	-501.75754	-785.59515	52.93908	628.96246	784.10620	59.44438	633.35431	-3.69799	542.07556	-1040.33362	
3563	35.620	-713.16864	-50.27031	-585.61627	701.99292	-35.64759	-501.43811	-784.59521	52.07822	629.21655	785.07202	58.58879	633.54382	-2.97823	543.15942	-1039.83875	
3564	35.630	-712.17358	-49.78284	-585.47266	703.19629	-34.75944	-501.34930	-783.50775	51.42054	629.37195	786.20374	57.83429	633.97913	-2.00335	544.63782	-1038.70435	
3565	35.640	-710.91852	-48.95167	-585.45624	703.95844	-34.26737	-501.30884	-782.44861	50.53873	629.56818	786.90894	56.96926	634.12054	-1.16793	545.90277	-1037.80322	
3566	35.650	-709.80054	-47.91543	-585.17511	705.35809	-33.31190	-500.94476	-781.39581	49.69682	630.04541	788.16406	56.11707	634.44080	0.11396	547.32489	-1036.87708	
3567	35.660	-708.60107	-47.17031	-585.13782	706.10999	-32.62731	-500.87421	-780.30035	48.80658	630.16302	789.22784	55.19165	634.69904	1.14943	548.90002	-1035.75586	
3568	35.670	-707.49200	-46.47366	-584.92047	707.15070	-31.93579	-500.66592	-779.34326	48.14873	630.48248	790.27466	54.39285	634.74329	2.17161	550.44501	-1034.96265	
3569	35.680	-706.60278	-45.49768	-584.79095	708.38013	-31.02717	-500.56403	-778.10895	46.87447	630.66443	791.35767	53.65080	635.15955	3.43670	551.76398	-1033.88110	
3570	35.690	-705.48541	-44.31395	-584.63165	709.42920	-30.50769	-500.34045	-777.21851	46.59424	631.08264	792.60150	52.79138	635.55457	4.19664	553.59912	-1032.86426	
3571	35.700	-704.41827	-43.52953	-584.36597	710.47247	-29.46994	-500.24921	-775.73279	45.24990	631.54480	793.47473	51.81978	635.89587	5.39760	555.33929	-1031.30920	
3572	35.710	-703.14941	-42.64168	-584.29425	711.60742	-28.80427	-500.04025	-774.88708	44.46658	631.63910	794.58459	50.66457	636.19641	6.04221	557.00439	-1030.52600	
